<svg width="138" height="114" viewBox="0 0 138 114" fill="none" xmlns="http://www.w3.org/2000/svg">
<path d="M89.0532 21.6986C89.0532 32.7736 73.9732 52.5003 69 52.5003C64.0268 52.5003 48.9468 32.7736 48.9468 21.6986C48.9468 16.3536 51.5379 11.2773 54.9468 7.68262L60.5 11.5C60.5 11.5 56.9679 17.1697 57 21.6986C57.0427 27.7076 61.4999 32.5 69 32.5C76.5 32.5 81 28.3971 81 21.6986C81 15 77 11.5 77 11.5L82.9468 7.68274C86.4805 11.298 89.0532 16.2438 89.0532 21.6986Z" fill="#1053B7"/>
<path d="M77.3962 11.8715C80.6744 11.8715 83.3319 9.21396 83.3319 5.93574C83.3319 2.65752 80.6744 0 77.3962 0C74.118 0 71.4604 2.65752 71.4604 5.93574C71.4604 9.21396 74.118 11.8715 77.3962 11.8715Z" fill="#1053B7"/>
<path d="M60.3908 11.8715C63.669 11.8715 66.3266 9.21396 66.3266 5.93574C66.3266 2.65752 63.669 0 60.3908 0C57.1126 0 54.4551 2.65752 54.4551 5.93574C54.4551 9.21396 57.1126 11.8715 60.3908 11.8715Z" fill="#1053B7"/>
<path d="M8.20804 77.3693H0.144043V72.6173H22.104V77.3693H14.04V97.8173H8.20804V77.3693ZM29.788 81.0053C30.46 80.0693 31.36 79.3613 32.488 78.8813C33.64 78.4013 34.96 78.1613 36.448 78.1613V83.3453C35.824 83.2973 35.404 83.2733 35.188 83.2733C33.58 83.2733 32.32 83.7294 31.408 84.6413C30.496 85.5294 30.04 86.8733 30.04 88.6733V97.8173H24.424V78.4493H29.788V81.0053ZM47.4938 78.1613C50.4938 78.1613 52.7978 78.8814 54.4058 80.3214C56.0138 81.7374 56.8178 83.8854 56.8178 86.7654V97.8173H51.5618V95.4053C50.5058 97.2053 48.5378 98.1053 45.6578 98.1053C44.1698 98.1053 42.8738 97.8533 41.7698 97.3493C40.6898 96.8454 39.8618 96.1493 39.2858 95.2613C38.7098 94.3733 38.4218 93.3653 38.4218 92.2373C38.4218 90.4373 39.0938 89.0213 40.4378 87.9893C41.8058 86.9573 43.9058 86.4413 46.7378 86.4413H51.2018C51.2018 85.2173 50.8298 84.2813 50.0858 83.6333C49.3418 82.9613 48.2258 82.6253 46.7378 82.6253C45.7058 82.6253 44.6858 82.7933 43.6778 83.1293C42.6938 83.4413 41.8538 83.8733 41.1578 84.4253L39.1418 80.5014C40.1978 79.7573 41.4578 79.1813 42.9218 78.7733C44.4098 78.3653 45.9338 78.1613 47.4938 78.1613ZM47.0618 94.3253C48.0218 94.3253 48.8738 94.1093 49.6178 93.6773C50.3618 93.2213 50.8898 92.5613 51.2018 91.6973V89.7173H47.3498C45.0458 89.7173 43.8938 90.4733 43.8938 91.9853C43.8938 92.7053 44.1698 93.2813 44.7218 93.7133C45.2978 94.1213 46.0778 94.3253 47.0618 94.3253ZM80.773 78.4493L72.601 97.8173H66.805L58.669 78.4493H64.465L69.829 91.6253L75.373 78.4493H80.773ZM101.509 88.2053C101.509 88.2773 101.473 88.7813 101.401 89.7173H86.7493C87.0133 90.9173 87.6373 91.8653 88.6213 92.5613C89.6053 93.2573 90.8293 93.6053 92.2933 93.6053C93.3013 93.6053 94.1893 93.4613 94.9573 93.1733C95.7493 92.8613 96.4813 92.3813 97.1533 91.7333L100.141 94.9733C98.3173 97.0613 95.6533 98.1053 92.1493 98.1053C89.9653 98.1053 88.0333 97.6853 86.3533 96.8453C84.6733 95.9813 83.3773 94.7933 82.4653 93.2813C81.5533 91.7694 81.0973 90.0533 81.0973 88.1333C81.0973 86.2373 81.5413 84.5333 82.4293 83.0213C83.3413 81.4853 84.5773 80.2973 86.1373 79.4573C87.7213 78.5933 89.4853 78.1613 91.4293 78.1613C93.3253 78.1613 95.0413 78.5693 96.5773 79.3853C98.1133 80.2013 99.3133 81.3773 100.177 82.9133C101.065 84.4253 101.509 86.1893 101.509 88.2053ZM91.4653 82.4093C90.1933 82.4093 89.1253 82.7693 88.2613 83.4893C87.3973 84.2093 86.8693 85.1933 86.6773 86.4413H96.2173C96.0253 85.2173 95.4973 84.2453 94.6333 83.5253C93.7693 82.7813 92.7133 82.4093 91.4653 82.4093ZM105.248 71.1053H110.864V97.8173H105.248V71.1053ZM125.292 98.1053C123.252 98.1053 121.416 97.6853 119.784 96.8453C118.176 95.9813 116.916 94.7933 116.004 93.2813C115.092 91.7694 114.636 90.0533 114.636 88.1333C114.636 86.2133 115.092 84.4973 116.004 82.9853C116.916 81.4733 118.176 80.2973 119.784 79.4573C121.416 78.5933 123.252 78.1613 125.292 78.1613C127.332 78.1613 129.156 78.5933 130.764 79.4573C132.372 80.2973 133.632 81.4733 134.544 82.9853C135.456 84.4973 135.912 86.2133 135.912 88.1333C135.912 90.0533 135.456 91.7694 134.544 93.2813C133.632 94.7933 132.372 95.9813 130.764 96.8453C129.156 97.6853 127.332 98.1053 125.292 98.1053ZM125.292 93.4973C126.732 93.4973 127.908 93.0173 128.82 92.0574C129.756 91.0734 130.224 89.7653 130.224 88.1333C130.224 86.5013 129.756 85.2053 128.82 84.2453C127.908 83.2613 126.732 82.7693 125.292 82.7693C123.852 82.7693 122.664 83.2613 121.728 84.2453C120.792 85.2053 120.324 86.5013 120.324 88.1333C120.324 89.7653 120.792 91.0734 121.728 92.0574C122.664 93.0173 123.852 93.4973 125.292 93.4973Z" fill="#050D18"/>
</svg>
