<svg width="24" height="24" viewBox="0 0 24 24" fill="none" xmlns="http://www.w3.org/2000/svg">
<path d="M19.2 11.5203C19.2 11.0243 19.152 10.5123 19.072 10.0323H12.144V12.8643H16.112C15.952 13.7763 15.424 14.5763 14.64 15.0883L17.008 16.9283C18.4 15.6323 19.2 13.7443 19.2 11.5203Z" fill="#4280EF"/>
<path d="M12.144 18.6883C14.128 18.6883 15.792 18.0323 17.008 16.9123L14.64 15.0883C13.984 15.5363 13.136 15.7923 12.144 15.7923C10.224 15.7923 8.60798 14.4963 8.01598 12.7683L5.58398 14.6403C6.83198 17.1203 9.35998 18.6883 12.144 18.6883Z" fill="#34A353"/>
<path d="M8.0162 12.7523C7.7122 11.8403 7.7122 10.8483 8.0162 9.93628L5.5842 8.04828C4.5442 10.1283 4.5442 12.5763 5.5842 14.6403L8.0162 12.7523Z" fill="#F6B704"/>
<path d="M12.144 6.91228C13.184 6.89628 14.208 7.29628 14.96 8.01628L17.056 5.90428C15.728 4.65628 13.968 3.98428 12.144 4.00028C9.35998 4.00028 6.83198 5.56828 5.58398 8.04828L8.01598 9.93628C8.60798 8.19228 10.224 6.91228 12.144 6.91228Z" fill="#E54335"/>
</svg>
