<svg width="24" height="24" viewBox="0 0 24 24" fill="none" xmlns="http://www.w3.org/2000/svg">
<path d="M2.30203 10.216L6.51503 14.323L5.02503 20.775C4.97978 20.9703 4.99428 21.1747 5.06665 21.3617C5.13901 21.5486 5.26589 21.7095 5.43083 21.8235C5.59577 21.9374 5.79115 21.9991 5.99161 22.0007C6.19208 22.0022 6.38837 21.9434 6.55503 21.832L2.30203 10.216ZM2.30203 10.216C2.16443 10.0819 2.06838 9.91099 2.02537 9.72372C1.98236 9.53645 1.99422 9.34075 2.05952 9.16004C2.12482 8.97934 2.2408 8.82127 2.39358 8.70475C2.54636 8.58822 2.72948 8.51819 2.92103 8.50301L8.62203 8.05001L11.089 2.58801M2.30203 10.216L11.089 2.58801M11.089 2.58801C11.1678 2.41221 11.2957 2.26296 11.4575 2.15828C11.6192 2.05359 11.8077 1.99794 12.0004 1.99805C12.193 1.99815 12.3815 2.05401 12.5431 2.15887C12.7047 2.26374 12.8325 2.41313 12.911 2.58901M11.089 2.58801L12.911 2.58901M12.911 2.58901L15.378 8.05001L12.911 2.58901ZM15.044 8.52505L14.9224 8.25586L12.4554 2.79486L12.4545 2.79294C12.4153 2.70517 12.3515 2.63063 12.2709 2.5783C12.1903 2.52597 12.0962 2.4981 12.0001 2.49805C11.904 2.49799 11.8099 2.52576 11.7292 2.578C11.6485 2.63024 11.5846 2.70471 11.5453 2.79244L11.5447 2.79383L9.0777 8.25583L8.95611 8.52504L8.66163 8.54844L2.96063 9.00144L2.96051 9.00145C2.86474 9.00904 2.77318 9.04406 2.69679 9.10232C2.6204 9.16058 2.56241 9.23961 2.52976 9.32997C2.49711 9.42032 2.49118 9.51817 2.51269 9.6118C2.53419 9.70544 2.58221 9.7909 2.65101 9.85795L2.65105 9.85799L6.86405 13.965L7.06551 14.1614L7.0022 14.4355L5.5122 20.8875L5.51213 20.8879C5.48951 20.9855 5.49676 21.0877 5.53294 21.1812C5.56912 21.2747 5.63256 21.3551 5.71503 21.4121C5.7975 21.469 5.89519 21.4999 5.99542 21.5007C6.09565 21.5014 6.1938 21.4721 6.27713 21.4164L6.27768 21.416L11.7227 17.786L12 17.6011L12.2774 17.786L17.7216 21.4155C17.7218 21.4156 17.722 21.4158 17.7222 21.4159C17.8074 21.4722 17.9076 21.5012 18.0097 21.499C18.112 21.4967 18.2112 21.4632 18.2939 21.4029C18.3766 21.3426 18.4388 21.2585 18.4722 21.1618C18.5056 21.0652 18.5087 20.9608 18.481 20.8625C18.481 20.8623 18.4809 20.8621 18.4809 20.8619L16.6523 14.4634L16.5665 14.1632L16.7986 13.9544L21.3341 9.8728L15.044 8.52505ZM15.044 8.52505L15.3384 8.54844M15.044 8.52505L15.3384 8.54844M15.3384 8.54844L21.0391 9.00142C21.1367 9.00923 21.2298 9.04543 21.307 9.10556C21.3841 9.16561 21.442 9.24691 21.4735 9.33943M15.3384 8.54844L21.4735 9.33943M21.4735 9.33943C21.5374 9.52938 21.4829 9.73812 21.3346 9.87235L21.4735 9.33943Z" stroke="#EBA41F"/>
</svg>
