<svg width="25" height="24" viewBox="0 0 25 24" fill="none" xmlns="http://www.w3.org/2000/svg">
<path d="M22.0756 9.17901C22.0125 8.99388 21.8964 8.83121 21.7416 8.71107C21.5869 8.59094 21.4002 8.51861 21.2046 8.50301L15.4837 8.05001L13.0081 2.58901C12.9293 2.41313 12.801 2.26374 12.6389 2.15887C12.4767 2.05401 12.2876 1.99815 12.0943 1.99805C11.901 1.99794 11.7118 2.05359 11.5495 2.15828C11.3872 2.26296 11.2588 2.41221 11.1798 2.58801L8.70418 8.05001L2.98332 8.50301C2.79111 8.51819 2.60735 8.58822 2.45403 8.70475C2.30072 8.82127 2.18434 8.97934 2.11881 9.16004C2.05328 9.34075 2.04138 9.53645 2.08454 9.72372C2.1277 9.91099 2.22408 10.0819 2.36216 10.216L6.58984 14.323L5.09465 20.775C5.04925 20.9703 5.0638 21.1747 5.13641 21.3617C5.20903 21.5486 5.33635 21.7095 5.50186 21.8235C5.66738 21.9374 5.86344 21.9991 6.0646 22.0007C6.26576 22.0022 6.46274 21.9434 6.62998 21.832L12.094 18.202L17.5579 21.832C17.7289 21.9451 17.9304 22.0033 18.1356 21.9988C18.3407 21.9944 18.5395 21.9274 18.7053 21.8069C18.8711 21.6865 18.9959 21.5183 19.0629 21.3251C19.1299 21.1318 19.136 20.9228 19.0802 20.726L17.2448 14.326L21.7966 10.244C22.0947 9.97601 22.2041 9.55801 22.0756 9.17901Z" fill="#EBA41F"/>
</svg>
