<svg width="198" height="57" viewBox="0 0 198 57" fill="none" xmlns="http://www.w3.org/2000/svg">
<path d="M40.1064 23.6986C40.1064 34.7736 25.0264 54.5003 20.0532 54.5003C15.08 54.5003 0 34.7736 0 23.6986C0 18.3536 2.59117 13.2773 6 9.68262L11.5532 13.5C11.5532 13.5 8.02108 19.1697 8.05322 23.6986C8.09587 29.7076 12.5532 34.5 20.0532 34.5C27.5532 34.5 32.0532 30.3971 32.0532 23.6986C32.0532 17 28.0532 13.5 28.0532 13.5L34 9.68274C37.5337 13.298 40.1064 18.2438 40.1064 23.6986Z" fill="#1053B7"/>
<path d="M28.4494 13.8715C31.7276 13.8715 34.3852 11.214 34.3852 7.93574C34.3852 4.65752 31.7276 2 28.4494 2C25.1712 2 22.5137 4.65752 22.5137 7.93574C22.5137 11.214 25.1712 13.8715 28.4494 13.8715Z" fill="#1053B7"/>
<path d="M11.444 13.8715C14.7223 13.8715 17.3798 11.214 17.3798 7.93574C17.3798 4.65752 14.7223 2 11.444 2C8.16582 2 5.5083 4.65752 5.5083 7.93574C5.5083 11.214 8.16582 13.8715 11.444 13.8715Z" fill="#1053B7"/>
<path d="M60.2613 20.5521H52.1973V15.8001H74.1573V20.5521H66.0933V41.0001H60.2613V20.5521ZM81.8414 24.1881C82.5134 23.2521 83.4134 22.5441 84.5414 22.0641C85.6934 21.5841 87.0134 21.3441 88.5014 21.3441V26.5281C87.8774 26.4801 87.4574 26.4561 87.2414 26.4561C85.6334 26.4561 84.3734 26.9121 83.4614 27.8241C82.5494 28.7121 82.0934 30.0561 82.0934 31.8561V41.0001H76.4774V21.6321H81.8414V24.1881ZM99.5472 21.3441C102.547 21.3441 104.851 22.0641 106.459 23.5041C108.067 24.9201 108.871 27.0681 108.871 29.9481V41.0001H103.615V38.5881C102.559 40.3881 100.591 41.2881 97.7112 41.2881C96.2232 41.2881 94.9272 41.0361 93.8232 40.5321C92.7432 40.0281 91.9152 39.3321 91.3392 38.4441C90.7632 37.5561 90.4752 36.5481 90.4752 35.4201C90.4752 33.6201 91.1472 32.2041 92.4912 31.1721C93.8592 30.1401 95.9592 29.6241 98.7912 29.6241H103.255C103.255 28.4001 102.883 27.4641 102.139 26.8161C101.395 26.1441 100.279 25.8081 98.7912 25.8081C97.7592 25.8081 96.7392 25.9761 95.7312 26.3121C94.7472 26.6241 93.9072 27.0561 93.2112 27.6081L91.1952 23.6841C92.2512 22.9401 93.5112 22.3641 94.9752 21.9561C96.4632 21.5481 97.9872 21.3441 99.5472 21.3441ZM99.1152 37.5081C100.075 37.5081 100.927 37.2921 101.671 36.8601C102.415 36.4041 102.943 35.7441 103.255 34.8801V32.9001H99.4032C97.0992 32.9001 95.9472 33.6561 95.9472 35.1681C95.9472 35.8881 96.2232 36.4641 96.7752 36.8961C97.3512 37.3041 98.1312 37.5081 99.1152 37.5081ZM132.826 21.6321L124.654 41.0001H118.858L110.722 21.6321H116.518L121.882 34.8081L127.426 21.6321H132.826ZM153.563 31.3881C153.563 31.4601 153.527 31.9641 153.455 32.9001H138.803C139.067 34.1001 139.691 35.0481 140.675 35.7441C141.659 36.4401 142.883 36.7881 144.347 36.7881C145.355 36.7881 146.243 36.6441 147.011 36.3561C147.803 36.0441 148.535 35.5641 149.207 34.9161L152.195 38.1561C150.371 40.2441 147.707 41.2881 144.203 41.2881C142.019 41.2881 140.087 40.8681 138.407 40.0281C136.727 39.1641 135.431 37.9761 134.519 36.4641C133.607 34.9521 133.151 33.2361 133.151 31.3161C133.151 29.4201 133.595 27.7161 134.483 26.2041C135.395 24.6681 136.631 23.4801 138.191 22.6401C139.775 21.7761 141.539 21.3441 143.483 21.3441C145.379 21.3441 147.095 21.7521 148.631 22.5681C150.167 23.3841 151.367 24.5601 152.231 26.0961C153.119 27.6081 153.563 29.3721 153.563 31.3881ZM143.519 25.5921C142.247 25.5921 141.179 25.9521 140.315 26.6721C139.451 27.3921 138.923 28.3761 138.731 29.6241H148.271C148.079 28.4001 147.551 27.4281 146.687 26.7081C145.823 25.9641 144.767 25.5921 143.519 25.5921ZM157.301 14.2881H162.917V41.0001H157.301V14.2881ZM177.346 41.2881C175.306 41.2881 173.47 40.8681 171.838 40.0281C170.23 39.1641 168.97 37.9761 168.058 36.4641C167.146 34.9521 166.69 33.2361 166.69 31.3161C166.69 29.3961 167.146 27.6801 168.058 26.1681C168.97 24.6561 170.23 23.4801 171.838 22.6401C173.47 21.7761 175.306 21.3441 177.346 21.3441C179.386 21.3441 181.21 21.7761 182.818 22.6401C184.426 23.4801 185.686 24.6561 186.598 26.1681C187.51 27.6801 187.966 29.3961 187.966 31.3161C187.966 33.2361 187.51 34.9521 186.598 36.4641C185.686 37.9761 184.426 39.1641 182.818 40.0281C181.21 40.8681 179.386 41.2881 177.346 41.2881ZM177.346 36.6801C178.786 36.6801 179.962 36.2001 180.874 35.2401C181.81 34.2561 182.278 32.9481 182.278 31.3161C182.278 29.6841 181.81 28.3881 180.874 27.4281C179.962 26.4441 178.786 25.9521 177.346 25.9521C175.906 25.9521 174.718 26.4441 173.782 27.4281C172.846 28.3881 172.378 29.6841 172.378 31.3161C172.378 32.9481 172.846 34.2561 173.782 35.2401C174.718 36.2001 175.906 36.6801 177.346 36.6801Z" fill="#050D18"/>
</svg>
